<?xml version="1.0" encoding="UTF-8"?>
<!DOCTYPE svg PUBLIC "-//W3C//DTD SVG 1.1//EN" "http://www.w3.org/Graphics/SVG/1.1/DTD/svg11.dtd">
<!-- Creator: CorelDRAW (Versión de evaluación) -->
<svg xmlns="http://www.w3.org/2000/svg" xml:space="preserve" width="282.222mm" height="282.222mm" version="1.1" style="shape-rendering:geometricPrecision; text-rendering:geometricPrecision; image-rendering:optimizeQuality; fill-rule:evenodd; clip-rule:evenodd"
viewBox="0 0 28222.2 28222.2"
 xmlns:xlink="http://www.w3.org/1999/xlink"
 xmlns:xodm="http://www.corel.com/coreldraw/odm/2003">
 <defs>
  <style type="text/css">
   <![CDATA[
    .fil2 {fill:#0B9444}
    .fil1 {fill:#0F75BD}
    .fil0 {fill:white}
    .fil4 {fill:black;fill-rule:nonzero}
    .fil3 {fill:white;fill-rule:nonzero}
   ]]>
  </style>
 </defs>
 <g id="Capa_x0020_1">
  <metadata id="CorelCorpID_0Corel-Layer"/>
  <polygon class="fil0" points="-0.01,0 28222.2,0 28222.2,28222.21 -0.01,28222.21 "/>
  <polygon class="fil1" points="1875.8,13438.89 13438.88,13438.89 13438.88,1875.81 1875.8,1875.81 "/>
  <polygon class="fil2" points="1875.8,26346.36 13438.88,26346.36 13438.88,14783.28 1875.8,14783.28 "/>
  <polygon class="fil2" points="14783.28,13438.89 26346.36,13438.89 26346.36,1875.81 14783.28,1875.81 "/>
  <polygon class="fil2" points="14783.28,26346.36 26346.36,26346.36 26346.36,14783.28 14783.28,14783.28 "/>
  <polygon class="fil3" points="6782.39,12048.61 6782.39,3407.68 8532.3,3407.68 8532.3,12048.61 "/>
  <polygon class="fil3" points="17596.02,12048.6 17596.02,3407.67 23533.64,3407.67 23533.64,4867.94 19345.93,4867.94 19345.93,6919.56 22966.43,6919.56 22966.43,8379.82 19345.93,8379.82 19345.93,12048.6 "/>
  <path class="fil0" d="M14086.11 17526.96c1997.61,0 3617.01,-1619.4 3617.01,-3617.02 0,-1997.61 -1619.4,-3617.01 -3617.01,-3617.01 -1997.62,0 -3617.02,1619.4 -3617.02,3617.01 0,1997.62 1619.4,3617.02 3617.02,3617.02z"/>
  <path class="fil4" d="M13931.79 14937.78l0 683.23 -2587.67 0c27.8,-260.02 112.08,-505.7 251.96,-737.93 139.87,-232.22 416.93,-540.66 829.38,-925.32 332.65,-310.23 536.18,-520.94 611.5,-631.22 101.32,-152.43 152.43,-303.06 152.43,-452.8 0,-164.98 -43.94,-291.4 -132.71,-380.17 -87.87,-88.77 -209.81,-132.7 -364.92,-132.7 -154.22,0 -276.16,46.62 -367.62,139.87 -90.56,92.36 -142.56,246.58 -156.91,462.66l-737.03 -73.52c43.94,-407.07 181.12,-699.37 412.45,-876.9 231.33,-176.64 520.04,-265.4 867.04,-265.4 380.17,0 678.75,103.11 896.63,308.44 216.98,205.32 325.47,460.86 325.47,766.61 0,173.95 -31.38,338.93 -93.25,496.74 -61.86,156.91 -160.49,320.99 -295.88,493.14 -88.77,114.77 -251.06,278.85 -484.18,493.15 -234.02,214.29 -381.97,355.96 -443.83,426.79 -62.77,69.94 -112.98,138.98 -151.53,205.33l1468.67 0zm522.74 -211.61l715.51 -78.9c17.03,146.15 62.76,254.64 135.39,324.58 72.63,70.83 169.46,105.8 288.71,105.8 151.53,0 279.75,-70.83 385.55,-211.6 105.81,-140.77 173.05,-433.07 202.64,-875.11 -185.6,215.19 -416.93,322.79 -695.78,322.79 -302.17,0 -563.98,-116.57 -783.65,-350.59 -219.68,-234.02 -329.07,-537.97 -329.07,-912.76 0,-390.93 115.67,-705.65 347.89,-944.15 232.23,-239.4 528.12,-358.65 886.77,-358.65 390.03,0 711.03,151.53 961.19,453.69 250.15,303.06 375.68,800.69 375.68,1494.68 0,704.75 -130.01,1214.03 -390.03,1526.06 -260.02,312.92 -598.95,468.94 -1016.78,468.94 -300.37,0 -542.46,-80.7 -728.06,-242.09 -184.7,-160.5 -303.96,-401.69 -355.96,-722.69zm1662.35 -1615.72c0,-237.61 -54.7,-422.31 -164.08,-553.22 -108.5,-130.91 -234.92,-196.36 -378.38,-196.36 -136.29,0 -249.26,53.8 -338.93,161.39 -90.56,107.6 -135.39,283.34 -135.39,527.22 0,248.37 49.32,430.38 147.05,546.94 97.73,115.67 219.67,173.95 366.72,173.95 141.67,0 260.92,-55.59 357.75,-167.67 96.84,-112.08 145.26,-276.16 145.26,-492.25z"/>
  <polygon class="fil3" points="6788.44,25497.74 6788.44,18317.08 4229.95,18317.08 4229.95,16856.81 11084.77,16856.81 11084.77,18317.08 8538.35,18317.08 8538.35,25497.74 "/>
  <path class="fil3" d="M17052.94 22697.9l1701.64 -168.96c102.58,569.22 307.74,985.58 619.51,1253.09 311.76,267.52 732.14,400.27 1261.14,400.27 559.16,0 981.56,-118.67 1265.16,-356.02 283.61,-237.34 426.42,-514.91 426.42,-832.71 0,-205.16 -60.35,-378.14 -179.02,-522.96 -118.67,-142.81 -327.85,-267.52 -625.54,-372.11 -203.15,-72.41 -665.77,-197.12 -1389.87,-378.14 -931.27,-233.32 -1584.98,-518.94 -1961.11,-858.86 -528.99,-476.7 -792.48,-1058 -792.48,-1743.88 0,-440.49 124.7,-854.84 372.1,-1239.02 249.42,-384.17 607.44,-675.82 1076.1,-876.96 468.65,-201.14 1031.84,-301.71 1695.6,-301.71 1080.12,0 1894.73,239.36 2439.82,720.08 547.09,480.72 832.71,1120.34 860.87,1922.89l-1749.91 60.34c-74.42,-446.53 -233.32,-766.34 -476.7,-961.45 -243.38,-195.1 -609.45,-293.66 -1096.21,-293.66 -502.84,0 -897.08,104.59 -1180.68,313.78 -183.04,134.76 -275.56,313.77 -275.56,539.05 0,205.16 86.49,380.15 259.47,524.97 219.24,187.06 752.26,380.16 1599.05,581.29 846.8,199.13 1472.34,408.32 1876.63,621.52 406.3,215.22 724.1,506.87 953.4,878.98 229.3,372.11 343.95,830.71 343.95,1375.79 0,494.8 -136.78,959.44 -412.34,1391.88 -275.56,432.45 -663.76,754.28 -1166.61,963.46 -502.84,211.2 -1130.4,315.79 -1880.65,315.79 -1092.18,0 -1930.93,-251.43 -2516.24,-756.28 -585.32,-502.85 -933.29,-1237.01 -1047.94,-2200.46z"/>
 </g>
</svg>
