<?xml version="1.0" encoding="UTF-8"?>
<!DOCTYPE svg PUBLIC "-//W3C//DTD SVG 1.1//EN" "http://www.w3.org/Graphics/SVG/1.1/DTD/svg11.dtd">
<!-- Creator: CorelDRAW (Versión de evaluación) -->
<svg xmlns="http://www.w3.org/2000/svg" xml:space="preserve" width="282.222mm" height="282.222mm" version="1.1" style="shape-rendering:geometricPrecision; text-rendering:geometricPrecision; image-rendering:optimizeQuality; fill-rule:evenodd; clip-rule:evenodd"
viewBox="0 0 28222.2 28222.2"
 xmlns:xlink="http://www.w3.org/1999/xlink"
 xmlns:xodm="http://www.corel.com/coreldraw/odm/2003">
 <defs>
  <style type="text/css">
   <![CDATA[
    .fil2 {fill:#0B9444}
    .fil1 {fill:#0F75BD}
    .fil0 {fill:white}
    .fil4 {fill:black;fill-rule:nonzero}
    .fil3 {fill:white;fill-rule:nonzero}
   ]]>
  </style>
 </defs>
 <g id="Capa_x0020_1">
  <metadata id="CorelCorpID_0Corel-Layer"/>
  <g id="_1808611941376">
   <polygon class="fil0" points="-0.01,0 28222.2,0 28222.2,28222.21 -0.01,28222.21 "/>
   <polygon class="fil1" points="1396.99,13412.58 13412.57,13412.58 13412.57,1397 1396.99,1397 "/>
   <polygon class="fil2" points="1396.99,26825.17 13412.57,26825.17 13412.57,14809.59 1396.99,14809.59 "/>
   <polygon class="fil2" points="14809.59,13412.58 26825.17,13412.58 26825.17,1397 14809.59,1397 "/>
   <polygon class="fil2" points="14809.59,26825.17 26825.17,26825.17 26825.17,14809.59 14809.59,14809.59 "/>
   <polygon class="fil3" points="6495.59,11967.9 6495.59,2988.82 8313.98,2988.82 8313.98,11967.9 "/>
   <polygon class="fil3" points="17732.4,11967.89 17732.4,2988.81 23902.38,2988.81 23902.38,4506.22 19550.79,4506.22 19550.79,6638.13 23312.97,6638.13 23312.97,8155.54 19550.79,8155.54 19550.79,11967.89 "/>
   <path class="fil0" d="M14085.13 17660.63c2075.79,0 3758.56,-1682.77 3758.56,-3758.56 0,-2075.79 -1682.77,-3758.56 -3758.56,-3758.56 -2075.79,0 -3758.56,1682.77 -3758.56,3758.56 0,2075.79 1682.77,3758.56 3758.56,3758.56z"/>
   <path class="fil4" d="M13934.87 14912.36l0 677.57 -2566.25 0c27.57,-257.86 111.15,-501.51 249.87,-731.82 138.72,-230.29 413.48,-536.18 822.52,-917.66 329.9,-307.66 531.74,-516.63 606.44,-625.99 100.48,-151.17 151.17,-300.55 151.17,-449.05 0,-163.62 -43.58,-288.99 -131.62,-377.03 -87.14,-88.03 -208.07,-131.6 -361.9,-131.6 -152.94,0 -273.87,46.24 -364.57,138.71 -89.81,91.6 -141.38,244.54 -155.61,458.83l-730.93 -72.91c43.57,-403.7 179.62,-693.58 409.03,-869.64 229.42,-175.18 515.74,-263.2 859.87,-263.2 377.02,0 673.13,102.25 889.2,305.88 215.19,203.62 322.78,457.05 322.78,760.27 0,172.51 -31.12,336.12 -92.48,492.63 -61.35,155.61 -159.16,318.33 -293.43,489.05 -88.03,113.82 -248.98,276.55 -480.17,489.07 -232.08,212.52 -378.81,353.02 -440.16,423.26 -62.25,69.36 -112.04,137.83 -150.27,203.63l1456.51 0zm518.41 -209.86l709.59 -78.24c16.89,144.94 62.24,252.53 134.27,321.89 72.03,70.24 168.06,104.92 286.32,104.92 150.28,0 277.43,-70.24 382.36,-209.85 104.93,-139.6 171.62,-429.48 200.96,-867.86 -184.06,213.41 -413.48,320.12 -690.02,320.12 -299.67,0 -559.31,-115.61 -777.16,-347.69 -217.86,-232.08 -326.35,-533.52 -326.35,-905.21 0,-387.69 114.71,-699.81 345.01,-936.33 230.31,-237.42 523.75,-355.68 879.43,-355.68 386.8,0 705.15,150.27 953.23,449.93 248.08,300.55 372.57,794.06 372.57,1482.31 0,698.92 -128.93,1203.98 -386.8,1513.43 -257.86,310.33 -593.99,465.06 -1008.36,465.06 -297.88,0 -537.97,-80.04 -722.03,-240.09 -183.17,-159.17 -301.45,-398.37 -353.02,-716.71zm1648.59 -1602.34c0,-235.65 -54.24,-418.82 -162.72,-548.64 -107.6,-129.83 -232.97,-194.74 -375.25,-194.74 -135.16,0 -247.19,53.36 -336.12,160.06 -89.81,106.7 -134.27,280.99 -134.27,522.85 0,246.32 48.91,426.82 145.83,542.41 96.92,114.72 217.85,172.51 363.69,172.51 140.49,0 258.76,-55.13 354.79,-166.28 96.03,-111.15 144.05,-273.87 144.05,-488.17z"/>
   <polygon class="fil3" points="6501.88,25816.88 6501.88,18355.21 3843.27,18355.21 3843.27,16837.8 10966.34,16837.8 10966.34,18355.21 8320.27,18355.21 8320.27,25816.88 "/>
   <path class="fil3" d="M17168.07 22907.47l1768.23 -175.57c106.59,591.49 319.78,1024.15 643.75,1302.13 323.96,277.98 760.79,415.93 1310.49,415.93 581.04,0 1019.97,-123.31 1314.67,-369.95 294.71,-246.63 443.11,-535.06 443.11,-865.3 0,-213.19 -62.71,-392.94 -186.03,-543.43 -123.31,-148.39 -340.68,-277.98 -650.01,-386.67 -211.1,-75.24 -691.83,-204.83 -1444.27,-392.94 -967.71,-242.45 -1647,-539.24 -2037.85,-892.47 -549.69,-495.35 -823.49,-1099.4 -823.49,-1812.12 0,-457.73 129.58,-888.29 386.66,-1287.51 259.18,-399.2 631.21,-702.26 1118.21,-911.28 486.99,-209.01 1072.22,-313.51 1761.95,-313.51 1122.39,0 1968.88,248.72 2535.3,748.26 568.5,499.53 865.3,1164.18 894.56,1998.14l-1818.39 62.7c-77.33,-464.01 -242.45,-796.33 -495.35,-999.08 -252.91,-202.73 -633.3,-305.15 -1139.11,-305.15 -522.52,0 -932.19,108.68 -1226.89,326.06 -190.2,140.03 -286.34,326.05 -286.34,560.15 0,213.18 89.88,395.02 269.62,545.51 227.82,194.38 781.7,395.04 1661.63,604.04 879.94,206.92 1529.96,424.3 1950.07,645.84 422.2,223.64 752.44,526.7 990.71,913.38 238.27,386.67 357.41,863.22 357.41,1429.63 0,514.16 -142.13,996.98 -428.48,1446.35 -286.34,449.37 -689.73,783.79 -1212.26,1001.16 -522.52,219.46 -1174.64,328.15 -1954.25,328.15 -1134.92,0 -2006.49,-261.27 -2614.71,-785.88 -608.22,-522.53 -969.81,-1285.42 -1088.94,-2286.57z"/>
  </g>
 </g>
</svg>
